<svg version="1.2" xmlns="http://www.w3.org/2000/svg" viewBox="0 0 16 16" width="16" height="16"><style>.a{fill:#b41511}.b{fill:#fff}</style><path fill-rule="evenodd" class="a" d="m8 0.7l1.9 5.8h6.1l-4.9 3.6 1.8 5.8-4.9-3.6-4.9 3.6 1.8-5.8-4.9-3.6h6.1zm-1.1 6.7h-3.7l2.9 2.2-1.1 3.5 3-2.2 3 2.2-1.2-3.5 3-2.2h-3.7l-1.1-3.5z"/><path fill-rule="evenodd" class="a" d="m8 0.7l1.9 5.8h6.1l-4.9 3.6 1.8 5.8-4.9-3.6-4.9 3.6 1.8-5.8-4.9-3.6h6.1zm-1.1 6.7h-3.7l2.9 2.2-1.1 3.5 3-2.2 3 2.2-1.2-3.5 3-2.2h-3.7l-1.1-3.5z"/><path class="b" d="m8 3.9l1.1 3.5h3.7l-3 2.2 1.2 3.5-3-2.2-3 2.2 1.1-3.5-3-2.2h3.7z"/></svg>