<svg version="1.2" xmlns="http://www.w3.org/2000/svg" viewBox="0 0 960 960" width="960" height="960">
    <path fill="#000000" d="m480 698.2q-90.5 0-154.4-63.8-63.8-63.9-63.8-154.4 0-90.5 63.8-154.4 63.9-63.8 154.4-63.8 90.5 0 154.4 63.8 63.8 63.9 63.8 154.4 0 90.5-63.8 154.4-63.9 63.8-154.4 63.8zm-443.6-181.8q-15.5 0-25.9-10.5-10.5-10.5-10.5-26 0-15.5 10.5-25.9 10.4-10.4 25.9-10.4h101.8q15.4 0 25.9 10.5 10.4 10.5 10.4 26 0 15.5-10.4 25.9-10.5 10.4-25.9 10.4zm785.4 0q-15.4 0-25.9-10.5-10.4-10.5-10.4-26 0-15.5 10.4-25.9 10.5-10.4 25.9-10.4h101.9q15.4 0 25.9 10.5 10.4 10.5 10.4 26 0 15.5-10.4 25.9-10.5 10.4-25.9 10.4zm-342-341.9q-15.5 0-25.9-10.4-10.3-10.5-10.3-25.9v-101.8q0-15.5 10.5-25.9 10.5-10.5 26-10.5 15.5 0 25.8 10.5 10.4 10.4 10.4 25.9v101.8q0 15.4-10.5 25.9-10.5 10.4-26 10.4zm0 785.5q-15.5 0-25.9-10.5-10.3-10.4-10.3-25.9v-101.8q0-15.4 10.5-25.9 10.5-10.4 26-10.4 15.5 0 25.8 10.4 10.4 10.5 10.4 25.9v101.8q0 15.5-10.5 25.9-10.5 10.5-26 10.5zm-266.8-696l-57.1-56q-10.9-10.5-10.4-25.9 0.4-15.3 10.4-26.2 10.8-10.8 26.1-10.8 15.4 0 25.9 10.9l56 57.1q9.9 10.9 9.9 25.4 0 14.6-9.9 25.1-9.8 10.6-24.9 10.4-15.1-0.2-26-10zm538.9 540l-56-57.1q-9.8-10.9-9.8-25.9 0-15 10.2-25 10.2-10.9 24.9-10.7 14.7 0.2 25.6 10.7l57.1 56q10.9 10.5 10.5 25.9-0.5 15.3-10.4 26.2-10.8 10.8-26.2 10.8-15.3 0-25.9-10.9zm-56-540q-10.9-10.5-10.7-25.3 0.2-14.7 10.7-25.6l56-57.1q10.6-10.9 25.9-10.5 15.4 0.5 26.2 10.4 10.8 10.9 10.8 26.2 0 15.4-10.9 25.9l-57.1 56q-10.1 9.8-24.9 9.8-14.9 0-26-9.8zm-540 540.1q-10.9-10.9-10.9-26.2 0-15.4 10.9-25.9l57.1-56q10.8-10.5 25.6-10.5 14.8 0 25.1 10.5 11.1 10.5 11 25.3-0.2 14.7-10.8 25.6l-56 57.1q-10.5 10.9-25.9 10.5-15.3-0.5-26.1-10.4z"/>
</svg>